# xmcd
# 
# Track frame offsets:
#	150
#	14613
#	27863
#	40320
#	55098
#	69710
#	84323
#	97715
#	110188
#	122135
#	135103
#	146768
#	160340
#	171313
#	183808
#	196580
#	207555
#
# Disc length: 2920 seconds
#
# Revision: 1
# Processed by: cddbd v1.4PL0 Copyright (c) Steve Scherf et al.
# Submitted via: Audio-CD-Archiv 2.10.438
#
DISCID=e70b6611
DTITLE=Nat King Cole - Unforgettable
DYEAR=1900
DGENRE=blues
TTITLE0=When I Fall In Love
TTITLE1=(I Love You) For Sentimental
TTITLE2=When Sunny gets Blue
TTITLE3=Mona Lisa
TTITLE4=Too Young
TTITLE5=Unforgettable
TTITLE6=Dinner For One Please, James
TTITLE7=Pretend
TTITLE8=Answer Me, My Love
TTITLE9=Darling, Je Vous Aime Beaucoup
TTITLE10=A Blossom Fell
TTITLE11=Blue Gardenia
TTITLE12=Ballerina
TTITLE13=Let There Be Love
TTITLE14=ramblin' Rose
TTITLE15=Those Lazy, hazy Crazy Days Of Summer
TTITLE16=L.O.V.E.
EXTD=
EXTT0=
EXTT1=
EXTT2=
EXTT3=
EXTT4=
EXTT5=
EXTT6=
EXTT7=
EXTT8=
EXTT9=
EXTT10=
EXTT11=
EXTT12=
EXTT13=
EXTT14=
EXTT15=
EXTT16=
PLAYORDER=
